<svg width="80" height="80" viewBox="0 0 80 80" fill="none" xmlns="http://www.w3.org/2000/svg">
  <defs>
    <linearGradient id="iconOnlyGrad" x1="0%" y1="0%" x2="100%" y2="100%">
      <stop offset="0%" style="stop-color:#00C2CB"/>
      <stop offset="100%" style="stop-color:#2ECC71"/>
    </linearGradient>
  </defs>
  <!-- Shield -->
  <path d="M40 5 L70 15 V40 C70 58 58 70 40 75 C22 70 10 58 10 40 V15 L40 5Z" fill="#0A2540" stroke="url(#iconOnlyGrad)" stroke-width="1.5"/>
  <!-- Droplet -->
  <path d="M40 18 C40 18 32 28 32 35 C32 42 35 47 40 47 C45 47 48 42 48 35 C48 28 40 18 40 18Z" fill="url(#iconOnlyGrad)"/>
  <!-- Sparkles -->
  <line x1="40" y1="10" x2="40" y2="15" stroke="#00C2CB" stroke-width="2" stroke-linecap="round"/>
  <line x1="40" y1="65" x2="40" y2="70" stroke="#00C2CB" stroke-width="2" stroke-linecap="round"/>
</svg>